<mxfile host="app.diagrams.net" modified="2024-05-20T15:17:17.454Z" agent="Mozilla/5.0 (Windows NT 10.0; Win64; x64) AppleWebKit/537.36 (KHTML, like Gecko) Chrome/124.0.0.0 Safari/537.36" version="24.4.4" etag="oRKl49WIqr_IKeybrqZS" type="device">
  <diagram id="2cFhJQ0EuO6aFKeluAfo" name="Page-1">
    <mxGraphModel dx="971" dy="676" grid="1" gridSize="10" guides="1" tooltips="1" connect="1" arrows="1" fold="1" page="1" pageScale="1" pageWidth="1169" pageHeight="827" math="0" shadow="0">
      <root>
        <mxCell id="0" />
        <mxCell id="1" parent="0" />
        <mxCell id="Z1PIHArSDxDDDAEvyer4-1" value="STOLOVI" style="rounded=1;whiteSpace=wrap;html=1;" vertex="1" parent="1">
          <mxGeometry x="585" y="430" width="120" height="60" as="geometry" />
        </mxCell>
        <mxCell id="Z1PIHArSDxDDDAEvyer4-2" value="GOSTI" style="rounded=1;whiteSpace=wrap;html=1;" vertex="1" parent="1">
          <mxGeometry x="140" y="410" width="120" height="60" as="geometry" />
        </mxCell>
        <mxCell id="Z1PIHArSDxDDDAEvyer4-3" value="REZERVACIJE" style="rounded=1;whiteSpace=wrap;html=1;" vertex="1" parent="1">
          <mxGeometry x="350" y="250" width="120" height="60" as="geometry" />
        </mxCell>
        <mxCell id="Z1PIHArSDxDDDAEvyer4-4" value="JELOVNIK" style="rounded=1;whiteSpace=wrap;html=1;" vertex="1" parent="1">
          <mxGeometry x="350" y="610" width="120" height="60" as="geometry" />
        </mxCell>
        <mxCell id="Z1PIHArSDxDDDAEvyer4-6" value="NARUDÅ½BE" style="rounded=1;whiteSpace=wrap;html=1;" vertex="1" parent="1">
          <mxGeometry x="350" y="430" width="120" height="60" as="geometry" />
        </mxCell>
        <mxCell id="Z1PIHArSDxDDDAEvyer4-9" value="" style="endArrow=none;html=1;rounded=0;entryX=0;entryY=0.5;entryDx=0;entryDy=0;exitX=0.5;exitY=0;exitDx=0;exitDy=0;" edge="1" parent="1" source="Z1PIHArSDxDDDAEvyer4-10" target="Z1PIHArSDxDDDAEvyer4-3">
          <mxGeometry width="50" height="50" relative="1" as="geometry">
            <mxPoint x="220" y="270" as="sourcePoint" />
            <mxPoint x="460" y="540" as="targetPoint" />
            <Array as="points">
              <mxPoint x="200" y="280" />
            </Array>
          </mxGeometry>
        </mxCell>
        <mxCell id="Z1PIHArSDxDDDAEvyer4-10" value="rezervira" style="rhombus;whiteSpace=wrap;html=1;" vertex="1" parent="1">
          <mxGeometry x="160" y="300" width="80" height="80" as="geometry" />
        </mxCell>
        <mxCell id="Z1PIHArSDxDDDAEvyer4-11" value="" style="endArrow=none;html=1;rounded=0;entryX=0.5;entryY=1;entryDx=0;entryDy=0;exitX=0.5;exitY=0;exitDx=0;exitDy=0;" edge="1" parent="1" source="Z1PIHArSDxDDDAEvyer4-2" target="Z1PIHArSDxDDDAEvyer4-10">
          <mxGeometry width="50" height="50" relative="1" as="geometry">
            <mxPoint x="250" y="430" as="sourcePoint" />
            <mxPoint x="300" y="380" as="targetPoint" />
          </mxGeometry>
        </mxCell>
        <mxCell id="Z1PIHArSDxDDDAEvyer4-12" value="1" style="text;html=1;align=center;verticalAlign=middle;resizable=0;points=[];autosize=1;strokeColor=none;fillColor=none;" vertex="1" parent="1">
          <mxGeometry x="165" y="370" width="30" height="30" as="geometry" />
        </mxCell>
        <mxCell id="Z1PIHArSDxDDDAEvyer4-13" value="N" style="text;html=1;align=center;verticalAlign=middle;resizable=0;points=[];autosize=1;strokeColor=none;fillColor=none;" vertex="1" parent="1">
          <mxGeometry x="160" y="288" width="30" height="30" as="geometry" />
        </mxCell>
        <mxCell id="Z1PIHArSDxDDDAEvyer4-14" value="ime, prezime" style="ellipse;whiteSpace=wrap;html=1;" vertex="1" parent="1">
          <mxGeometry x="115" y="512" width="70" height="40" as="geometry" />
        </mxCell>
        <mxCell id="Z1PIHArSDxDDDAEvyer4-16" value="kontakt&lt;div&gt;informacije&lt;/div&gt;" style="ellipse;whiteSpace=wrap;html=1;" vertex="1" parent="1">
          <mxGeometry x="195" y="512" width="90" height="40" as="geometry" />
        </mxCell>
        <mxCell id="Z1PIHArSDxDDDAEvyer4-18" value="datum" style="ellipse;whiteSpace=wrap;html=1;" vertex="1" parent="1">
          <mxGeometry x="270" y="190" width="70" height="40" as="geometry" />
        </mxCell>
        <mxCell id="Z1PIHArSDxDDDAEvyer4-51" style="edgeStyle=orthogonalEdgeStyle;rounded=0;orthogonalLoop=1;jettySize=auto;html=1;entryX=1;entryY=0.5;entryDx=0;entryDy=0;exitX=0;exitY=1;exitDx=0;exitDy=0;" edge="1" parent="1" source="Z1PIHArSDxDDDAEvyer4-19" target="Z1PIHArSDxDDDAEvyer4-1">
          <mxGeometry relative="1" as="geometry">
            <Array as="points">
              <mxPoint x="720" y="448" />
              <mxPoint x="720" y="460" />
            </Array>
          </mxGeometry>
        </mxCell>
        <mxCell id="Z1PIHArSDxDDDAEvyer4-19" value="broj mjesta" style="ellipse;whiteSpace=wrap;html=1;" vertex="1" parent="1">
          <mxGeometry x="720" y="414" width="85" height="40" as="geometry" />
        </mxCell>
        <mxCell id="Z1PIHArSDxDDDAEvyer4-20" value="trajanje" style="ellipse;whiteSpace=wrap;html=1;" vertex="1" parent="1">
          <mxGeometry x="389" y="190" width="70" height="40" as="geometry" />
        </mxCell>
        <mxCell id="Z1PIHArSDxDDDAEvyer4-21" value="broj gostiju" style="ellipse;whiteSpace=wrap;html=1;" vertex="1" parent="1">
          <mxGeometry x="435" y="150" width="85" height="40" as="geometry" />
        </mxCell>
        <mxCell id="Z1PIHArSDxDDDAEvyer4-23" value="vrijeme&lt;div&gt;rezervacije&lt;/div&gt;" style="ellipse;whiteSpace=wrap;html=1;" vertex="1" parent="1">
          <mxGeometry x="320" y="150" width="85" height="40" as="geometry" />
        </mxCell>
        <mxCell id="Z1PIHArSDxDDDAEvyer4-52" style="edgeStyle=orthogonalEdgeStyle;rounded=0;orthogonalLoop=1;jettySize=auto;html=1;entryX=1;entryY=0.75;entryDx=0;entryDy=0;" edge="1" parent="1" source="Z1PIHArSDxDDDAEvyer4-24" target="Z1PIHArSDxDDDAEvyer4-1">
          <mxGeometry relative="1" as="geometry">
            <Array as="points">
              <mxPoint x="720" y="500" />
              <mxPoint x="720" y="475" />
            </Array>
          </mxGeometry>
        </mxCell>
        <mxCell id="Z1PIHArSDxDDDAEvyer4-24" value="lokacija" style="ellipse;whiteSpace=wrap;html=1;" vertex="1" parent="1">
          <mxGeometry x="727.5" y="460" width="70" height="40" as="geometry" />
        </mxCell>
        <mxCell id="Z1PIHArSDxDDDAEvyer4-26" value="ima" style="rhombus;whiteSpace=wrap;html=1;" vertex="1" parent="1">
          <mxGeometry x="605" y="320" width="80" height="80" as="geometry" />
        </mxCell>
        <mxCell id="Z1PIHArSDxDDDAEvyer4-27" value="" style="endArrow=none;html=1;rounded=0;entryX=0.5;entryY=0;entryDx=0;entryDy=0;exitX=0.5;exitY=1;exitDx=0;exitDy=0;" edge="1" parent="1" source="Z1PIHArSDxDDDAEvyer4-26" target="Z1PIHArSDxDDDAEvyer4-1">
          <mxGeometry width="50" height="50" relative="1" as="geometry">
            <mxPoint x="505" y="400" as="sourcePoint" />
            <mxPoint x="555" y="350" as="targetPoint" />
          </mxGeometry>
        </mxCell>
        <mxCell id="Z1PIHArSDxDDDAEvyer4-28" value="" style="endArrow=none;html=1;rounded=0;entryX=1;entryY=0.5;entryDx=0;entryDy=0;exitX=0.5;exitY=0;exitDx=0;exitDy=0;" edge="1" parent="1" source="Z1PIHArSDxDDDAEvyer4-26" target="Z1PIHArSDxDDDAEvyer4-3">
          <mxGeometry width="50" height="50" relative="1" as="geometry">
            <mxPoint x="480" y="380" as="sourcePoint" />
            <mxPoint x="530" y="330" as="targetPoint" />
            <Array as="points">
              <mxPoint x="645" y="280" />
            </Array>
          </mxGeometry>
        </mxCell>
        <mxCell id="Z1PIHArSDxDDDAEvyer4-32" value="" style="endArrow=none;html=1;rounded=0;entryX=0.5;entryY=1;entryDx=0;entryDy=0;exitX=0.5;exitY=0;exitDx=0;exitDy=0;" edge="1" parent="1" source="Z1PIHArSDxDDDAEvyer4-6" target="Z1PIHArSDxDDDAEvyer4-3">
          <mxGeometry width="50" height="50" relative="1" as="geometry">
            <mxPoint x="370" y="380" as="sourcePoint" />
            <mxPoint x="420" y="330" as="targetPoint" />
          </mxGeometry>
        </mxCell>
        <mxCell id="Z1PIHArSDxDDDAEvyer4-33" value="" style="endArrow=none;html=1;rounded=0;entryX=0.5;entryY=1;entryDx=0;entryDy=0;exitX=0.5;exitY=0;exitDx=0;exitDy=0;" edge="1" parent="1" source="Z1PIHArSDxDDDAEvyer4-4" target="Z1PIHArSDxDDDAEvyer4-6">
          <mxGeometry width="50" height="50" relative="1" as="geometry">
            <mxPoint x="370" y="650" as="sourcePoint" />
            <mxPoint x="420" y="600" as="targetPoint" />
          </mxGeometry>
        </mxCell>
        <mxCell id="Z1PIHArSDxDDDAEvyer4-44" style="edgeStyle=orthogonalEdgeStyle;rounded=0;orthogonalLoop=1;jettySize=auto;html=1;entryX=0.5;entryY=1;entryDx=0;entryDy=0;" edge="1" parent="1" source="Z1PIHArSDxDDDAEvyer4-34" target="Z1PIHArSDxDDDAEvyer4-4">
          <mxGeometry relative="1" as="geometry" />
        </mxCell>
        <mxCell id="Z1PIHArSDxDDDAEvyer4-34" value="opis" style="ellipse;whiteSpace=wrap;html=1;" vertex="1" parent="1">
          <mxGeometry x="375.5" y="710" width="70" height="40" as="geometry" />
        </mxCell>
        <mxCell id="Z1PIHArSDxDDDAEvyer4-35" value="naziv" style="ellipse;whiteSpace=wrap;html=1;" vertex="1" parent="1">
          <mxGeometry x="295.5" y="710" width="70" height="40" as="geometry" />
        </mxCell>
        <mxCell id="Z1PIHArSDxDDDAEvyer4-43" style="edgeStyle=orthogonalEdgeStyle;rounded=0;orthogonalLoop=1;jettySize=auto;html=1;entryX=0.75;entryY=1;entryDx=0;entryDy=0;" edge="1" parent="1" source="Z1PIHArSDxDDDAEvyer4-36" target="Z1PIHArSDxDDDAEvyer4-4">
          <mxGeometry relative="1" as="geometry" />
        </mxCell>
        <mxCell id="Z1PIHArSDxDDDAEvyer4-36" value="cijena" style="ellipse;whiteSpace=wrap;html=1;" vertex="1" parent="1">
          <mxGeometry x="454.5" y="710" width="70" height="40" as="geometry" />
        </mxCell>
        <mxCell id="Z1PIHArSDxDDDAEvyer4-46" style="edgeStyle=orthogonalEdgeStyle;rounded=0;orthogonalLoop=1;jettySize=auto;html=1;exitX=0.5;exitY=0;exitDx=0;exitDy=0;" edge="1" parent="1" source="Z1PIHArSDxDDDAEvyer4-37" target="Z1PIHArSDxDDDAEvyer4-6">
          <mxGeometry relative="1" as="geometry">
            <mxPoint x="480" y="450" as="targetPoint" />
            <Array as="points">
              <mxPoint x="515" y="450" />
            </Array>
          </mxGeometry>
        </mxCell>
        <mxCell id="Z1PIHArSDxDDDAEvyer4-37" value="koliÄina" style="ellipse;whiteSpace=wrap;html=1;" vertex="1" parent="1">
          <mxGeometry x="480" y="470" width="70" height="40" as="geometry" />
        </mxCell>
        <mxCell id="Z1PIHArSDxDDDAEvyer4-38" value="naruÄuje" style="rhombus;whiteSpace=wrap;html=1;" vertex="1" parent="1">
          <mxGeometry x="370" y="330" width="80" height="80" as="geometry" />
        </mxCell>
        <mxCell id="Z1PIHArSDxDDDAEvyer4-39" style="edgeStyle=orthogonalEdgeStyle;rounded=0;orthogonalLoop=1;jettySize=auto;html=1;exitX=0.5;exitY=0;exitDx=0;exitDy=0;entryX=0.333;entryY=1;entryDx=0;entryDy=0;entryPerimeter=0;" edge="1" parent="1" source="Z1PIHArSDxDDDAEvyer4-14" target="Z1PIHArSDxDDDAEvyer4-2">
          <mxGeometry relative="1" as="geometry" />
        </mxCell>
        <mxCell id="Z1PIHArSDxDDDAEvyer4-40" style="edgeStyle=orthogonalEdgeStyle;rounded=0;orthogonalLoop=1;jettySize=auto;html=1;entryX=0.553;entryY=1.008;entryDx=0;entryDy=0;entryPerimeter=0;" edge="1" parent="1" source="Z1PIHArSDxDDDAEvyer4-16" target="Z1PIHArSDxDDDAEvyer4-2">
          <mxGeometry relative="1" as="geometry" />
        </mxCell>
        <mxCell id="Z1PIHArSDxDDDAEvyer4-42" style="edgeStyle=orthogonalEdgeStyle;rounded=0;orthogonalLoop=1;jettySize=auto;html=1;entryX=0.279;entryY=1.01;entryDx=0;entryDy=0;entryPerimeter=0;" edge="1" parent="1" source="Z1PIHArSDxDDDAEvyer4-35" target="Z1PIHArSDxDDDAEvyer4-4">
          <mxGeometry relative="1" as="geometry" />
        </mxCell>
        <mxCell id="Z1PIHArSDxDDDAEvyer4-47" style="edgeStyle=orthogonalEdgeStyle;rounded=0;orthogonalLoop=1;jettySize=auto;html=1;entryX=0.139;entryY=0.029;entryDx=0;entryDy=0;entryPerimeter=0;" edge="1" parent="1" source="Z1PIHArSDxDDDAEvyer4-18" target="Z1PIHArSDxDDDAEvyer4-3">
          <mxGeometry relative="1" as="geometry" />
        </mxCell>
        <mxCell id="Z1PIHArSDxDDDAEvyer4-48" style="edgeStyle=orthogonalEdgeStyle;rounded=0;orthogonalLoop=1;jettySize=auto;html=1;entryX=0.915;entryY=0;entryDx=0;entryDy=0;entryPerimeter=0;" edge="1" parent="1" source="Z1PIHArSDxDDDAEvyer4-21" target="Z1PIHArSDxDDDAEvyer4-3">
          <mxGeometry relative="1" as="geometry" />
        </mxCell>
        <mxCell id="Z1PIHArSDxDDDAEvyer4-49" style="edgeStyle=orthogonalEdgeStyle;rounded=0;orthogonalLoop=1;jettySize=auto;html=1;entryX=0.619;entryY=0.002;entryDx=0;entryDy=0;entryPerimeter=0;" edge="1" parent="1" source="Z1PIHArSDxDDDAEvyer4-20" target="Z1PIHArSDxDDDAEvyer4-3">
          <mxGeometry relative="1" as="geometry" />
        </mxCell>
        <mxCell id="Z1PIHArSDxDDDAEvyer4-50" style="edgeStyle=orthogonalEdgeStyle;rounded=0;orthogonalLoop=1;jettySize=auto;html=1;entryX=0.308;entryY=0.011;entryDx=0;entryDy=0;entryPerimeter=0;" edge="1" parent="1" source="Z1PIHArSDxDDDAEvyer4-23" target="Z1PIHArSDxDDDAEvyer4-3">
          <mxGeometry relative="1" as="geometry">
            <Array as="points">
              <mxPoint x="363" y="200" />
              <mxPoint x="387" y="200" />
            </Array>
          </mxGeometry>
        </mxCell>
        <mxCell id="Z1PIHArSDxDDDAEvyer4-53" value="1" style="text;html=1;align=center;verticalAlign=middle;resizable=0;points=[];autosize=1;strokeColor=none;fillColor=none;" vertex="1" parent="1">
          <mxGeometry x="655" y="298" width="30" height="30" as="geometry" />
        </mxCell>
        <mxCell id="Z1PIHArSDxDDDAEvyer4-54" value="N" style="text;html=1;align=center;verticalAlign=middle;resizable=0;points=[];autosize=1;strokeColor=none;fillColor=none;" vertex="1" parent="1">
          <mxGeometry x="655" y="378" width="30" height="30" as="geometry" />
        </mxCell>
        <mxCell id="Z1PIHArSDxDDDAEvyer4-55" value="N" style="text;html=1;align=center;verticalAlign=middle;resizable=0;points=[];autosize=1;strokeColor=none;fillColor=none;" vertex="1" parent="1">
          <mxGeometry x="415" y="308" width="30" height="30" as="geometry" />
        </mxCell>
        <mxCell id="Z1PIHArSDxDDDAEvyer4-56" value="N" style="text;html=1;align=center;verticalAlign=middle;resizable=0;points=[];autosize=1;strokeColor=none;fillColor=none;" vertex="1" parent="1">
          <mxGeometry x="425" y="398" width="30" height="30" as="geometry" />
        </mxCell>
        <mxCell id="Z1PIHArSDxDDDAEvyer4-57" value="odabir" style="rhombus;whiteSpace=wrap;html=1;" vertex="1" parent="1">
          <mxGeometry x="370" y="510" width="80" height="80" as="geometry" />
        </mxCell>
        <mxCell id="Z1PIHArSDxDDDAEvyer4-58" value="N" style="text;html=1;align=center;verticalAlign=middle;resizable=0;points=[];autosize=1;strokeColor=none;fillColor=none;" vertex="1" parent="1">
          <mxGeometry x="420" y="500" width="30" height="30" as="geometry" />
        </mxCell>
        <mxCell id="Z1PIHArSDxDDDAEvyer4-59" value="N" style="text;html=1;align=center;verticalAlign=middle;resizable=0;points=[];autosize=1;strokeColor=none;fillColor=none;" vertex="1" parent="1">
          <mxGeometry x="415" y="578" width="30" height="30" as="geometry" />
        </mxCell>
      </root>
    </mxGraphModel>
  </diagram>
</mxfile>
